<svg xmlns="http://www.w3.org/2000/svg" viewBox="0 0 500 500"><g id="freepik--Checklist--inject-78"><polygon points="316.5 99.3 85.98 99.3 101.15 413.24 331.67 413.24 316.5 99.3" style="fill:#EF9B0F"></polygon><polygon points="316.5 99.3 85.98 99.3 101.15 413.24 331.67 413.24 316.5 99.3" style="opacity:0.2"></polygon><polygon points="318.63 99.3 88.11 99.3 103.29 413.24 333.81 413.24 318.63 99.3" style="fill:#EF9B0F"></polygon><polygon points="306.46 109.86 98.65 109.86 113.17 399.05 293.87 398.81 323.9 372.19 306.46 109.86" style="opacity:0.2"></polygon><path d="M308.05,109.85A2354.69,2354.69,0,0,0,329,368.71q-24.7,17-49.15,34H124.43A2360.67,2360.67,0,0,1,98.65,109.85Z" style="fill:#fff"></path><path d="M329,368.71q-24.7,17-49.15,34,5.34-22.5,11.13-45Z" style="fill:#ebebeb"></path><path d="M155,136.31q.59,15.88,1.38,31.78H124.61q-.8-15.9-1.38-31.78H155m3.24-3.35H119.76q.67,19.23,1.67,38.48h38.49q-1-19.24-1.67-38.48Z" style="fill:#EF9B0F"></path><path d="M284.82,148.24H176c-.1-2.39-.19-4.79-.28-7.18H284.53C284.62,143.45,284.72,145.85,284.82,148.24Z" style="fill:#e0e0e0"></path><path d="M261.83,163.34H176.67c-.11-2.4-.23-4.79-.33-7.18h85.15Q261.66,159.75,261.83,163.34Z" style="fill:#e0e0e0"></path><path d="M158.12,198.55q1,15.9,2.23,31.8H128.57q-1.23-15.9-2.23-31.8h31.78m3.14-3.35H122.78q1.18,19.25,2.69,38.5H164q-1.5-19.24-2.7-38.5Z" style="fill:#EF9B0F"></path><path d="M219.4,210.49h-40c-.16-2.4-.33-4.79-.48-7.19h40C219.07,205.7,219.23,208.09,219.4,210.49Z" style="fill:#e0e0e0"></path><path d="M257.27,210.49H227.86c-.16-2.4-.33-4.79-.48-7.19h29.41C256.94,205.7,257.1,208.09,257.27,210.49Z" style="fill:#e0e0e0"></path><path d="M275.73,225.6H180.5c-.18-2.4-.35-4.79-.53-7.19H275.2C275.38,220.81,275.55,223.2,275.73,225.6Z" style="fill:#e0e0e0"></path><path d="M162.89,260.82q1.43,15.9,3.08,31.8H134.19q-1.65-15.9-3.08-31.8h31.78m3.06-3.35H127.46q1.7,19.26,3.72,38.51h38.49q-2-19.26-3.72-38.51Z" style="fill:#EF9B0F"></path><path d="M294.1,280.69H185.27l.72,7.18H294.82Z" style="fill:#e0e0e0"></path><path d="M269,265.58H183.84c.22,2.39.44,4.79.67,7.18h85.15C269.44,270.37,269.21,268,269,265.58Z" style="fill:#e0e0e0"></path><path d="M169.32,323.09q1.86,15.9,3.93,31.79H141.47q-2.07-15.88-3.93-31.79h31.78m3-3.35H133.8Q136,339,138.55,358.23H177q-2.53-19.23-4.75-38.49Z" style="fill:#EF9B0F"></path><path d="M300.09,335H191.26c-.29-2.4-.58-4.79-.86-7.19H299.22C299.51,330.24,299.79,332.63,300.09,335Z" style="fill:#e0e0e0"></path><path d="M242.69,350.13H193.15c-.31-2.39-.61-4.79-.91-7.18h49.54C242.08,345.34,242.38,347.74,242.69,350.13Z" style="fill:#e0e0e0"></path><path d="M272.27,350.13H250.88c-.31-2.39-.61-4.79-.91-7.18h21.39C271.66,345.34,272,347.74,272.27,350.13Z" style="fill:#e0e0e0"></path><path d="M141,163.55l-1.41-2.24c-3.08-4.9-9.36-9.27-11.53-10.55l1.62-2.87a45.5,45.5,0,0,1,11.26,9.67c4.84-6.59,12-13.4,21.8-20.72l2.07,2.7c-10.46,7.83-17.78,15-22.4,21.9Z" style="fill:#EF9B0F"></path><path d="M144.8,225.81l-1.47-2.24c-3.2-4.9-9.6-9.28-11.8-10.56l1.53-2.87a47,47,0,0,1,11.53,9.68c4.66-6.6,11.63-13.41,21.24-20.74.71.9,1.43,1.8,2.14,2.71-10.25,7.84-17.38,15-21.81,21.91C145.7,224.4,145.25,225.11,144.8,225.81Z" style="fill:#EF9B0F"></path><path d="M150.32,288.24,148.79,286c-3.34-4.9-9.86-9.28-12.09-10.55.48-1,1-1.92,1.46-2.87a49.09,49.09,0,0,1,11.78,9.67c4.49-6.6,11.28-13.4,20.68-20.74l2.22,2.71c-10,7.84-17,15-21.23,21.91Z" style="fill:#EF9B0F"></path><path d="M251.13,385.46c-5.9,0-9.3-2.18-12.3-4.1s-5.58-3.58-10.56-3.58-7.2,1.74-9.55,3.58-5.23,4.1-11.13,4.1-9.3-2.18-12.29-4.1-5.57-3.58-10.56-3.58-7.2,1.74-9.55,3.58-5.23,4.1-11.12,4.1-9.3-2.18-12.3-4.1-5.57-3.58-10.56-3.58c-.13-1-.27-1.92-.4-2.88,5.9,0,9.29,2.18,12.29,4.1s5.57,3.58,10.55,3.58,7.2-1.74,9.55-3.58,5.24-4.1,11.14-4.1,9.28,2.18,12.28,4.1,5.58,3.58,10.56,3.58,7.2-1.74,9.55-3.58,5.24-4.1,11.14-4.1,9.29,2.18,12.29,4.1,5.57,3.58,10.56,3.58C250.85,383.54,251,384.5,251.13,385.46Z" style="fill:#ebebeb"></path><path d="M259.59,107.07c-3.38-9-11.19-14.91-19.59-14.91H222.88a6.51,6.51,0,0,1-5.95-4,16,16,0,0,0-14.57-9.79,14.17,14.17,0,0,0-13.62,9.79,5.78,5.78,0,0,1-5.57,4H166.06c-8.41,0-15.65,5.94-18.15,14.91l-1,3.57h114Z" style="fill:#263238"></path><path d="M260.2,114.16H148a3.74,3.74,0,0,1-3.69-3.52h0a3.33,3.33,0,0,1,3.35-3.51H259.86a3.74,3.74,0,0,1,3.69,3.51h0A3.33,3.33,0,0,1,260.2,114.16Z" style="fill:#EF9B0F"></path><path d="M260.2,114.16H148a3.74,3.74,0,0,1-3.69-3.52h0a3.33,3.33,0,0,1,3.35-3.51H259.86a3.74,3.74,0,0,1,3.69,3.51h0A3.33,3.33,0,0,1,260.2,114.16Z" style="opacity:0.2"></path></g></svg>